<svg width="95" height="38" viewBox="0 0 95 38" fill="none" xmlns="http://www.w3.org/2000/svg">
<path fill-rule="evenodd" clip-rule="evenodd" d="M33.5222 0C33.8083 0.000244235 34.0596 0.19302 34.1361 0.470822L38.4115 15.994C38.5845 16.6219 39.4689 16.6211 39.6405 15.9929L43.8711 0.471982C43.9472 0.193202 44.1992 3.76826e-07 44.4862 0H49.776C50.112 5.5393e-05 50.39 0.262944 50.4117 0.600704L52.5632 34.3318C53.6492 35.5929 54.4704 36.7451 55.0635 37.6774C55.23 37.9391 54.9337 38.1298 54.7365 37.8908C52.4923 35.1716 47.9867 30.4292 41.816 27.4631C37.2729 25.2793 32.3138 24.1458 27.3064 24.1453C25.5421 24.1452 23.788 24.2886 22.0591 24.5663L24.3609 35.1783C24.4474 35.5784 24.1454 35.9562 23.7389 35.9565H18.1095C17.8709 35.9565 17.6662 35.7856 17.6218 35.5494L17.3763 34.2425C16.942 31.9298 14.9357 30.2558 12.5994 30.2556C10.2629 30.2556 8.25688 31.9297 7.82251 34.2425L7.57696 35.5494C7.53258 35.7856 7.32678 35.9565 7.08814 35.9565H2.03243L2.03128 35.9576H0.650885C0.648277 35.9576 0.645402 35.9566 0.642853 35.9565H0.565973L0.57171 35.9286C0.520811 35.8874 0.504247 35.8092 0.551056 35.75C3.72822 31.7584 7.75038 28.5327 12.3297 26.3046C16.6504 24.2025 21.3647 23.0383 26.1716 22.8801L27.5944 0.600704C27.6161 0.262998 27.8942 0.00015054 28.2301 0H33.5222ZM45.0312 17.0807C44.9928 16.3241 43.9132 16.2469 43.769 16.9902L41.9996 26.1353C42.1211 26.192 42.2436 26.2465 42.3645 26.3046C43.5266 26.9165 44.6019 27.5596 45.5958 28.2192L45.0312 17.0807ZM34.2382 16.9902C34.0941 16.2468 33.0144 16.324 32.976 17.0807L32.6604 23.2825C33.6373 23.4359 34.6073 23.6307 35.5681 23.867L34.2382 16.9902Z" fill="#EFC705"/>
<path d="M73.1635 0C73.5153 0.000304301 73.8004 0.288025 73.8004 0.642452V5.52231C73.8002 5.87657 73.5152 6.16329 73.1635 6.1636H64.3935C64.0415 6.1636 63.7555 6.45147 63.7555 6.80605V14.1003C63.7555 14.4549 64.0415 14.7428 64.3935 14.7428H71.9392C72.2911 14.7428 72.577 15.0296 72.5772 15.3841V20.0587C72.5772 20.4133 72.2912 20.7011 71.9392 20.7011H64.3935C64.0415 20.7011 63.7555 20.9889 63.7555 21.3436V29.3568C63.7558 29.7112 64.0417 29.9981 64.3935 29.9981H73.3666C73.7186 29.9981 74.0046 30.286 74.0046 30.6406V35.3152C74.0044 35.6696 73.7185 35.9565 73.3666 35.9565H57.4077C57.0559 35.9565 56.7699 35.6696 56.7697 35.3152V0.642452C56.7697 0.287837 57.0557 0 57.4077 0H73.1635Z" fill="#EFC705"/>
<path d="M84.5555 0C84.9074 0.000180985 85.1924 0.287949 85.1924 0.642452V29.3568C85.1927 29.7112 85.4785 29.9981 85.8303 29.9981H93.8855C94.2375 29.9981 94.5235 30.286 94.5235 30.6406V35.3152C94.5233 35.6696 94.2374 35.9565 93.8855 35.9565H78.8446C78.4927 35.9565 78.2068 35.6696 78.2066 35.3152V0.642452C78.2066 0.287837 78.4926 0 78.8446 0H84.5555Z" fill="#EFC705"/>
<path d="M15.7033 0C16.3022 0.000238785 16.8204 0.420587 16.9483 1.01006L21.2065 20.6373C19.1593 20.949 17.166 21.428 15.242 22.0602L13.4531 12.7528C13.2673 11.7873 11.8987 11.7802 11.7032 12.7435L10.5087 18.6462L9.42666 24.5419C6.72943 25.976 4.22743 27.7327 1.97161 29.7615L8.49722 0.998468C8.6297 0.414575 9.14539 4.77821e-05 9.73992 0H15.7033Z" fill="#EFC705"/>
</svg>
